<svg width="101" height="114" viewBox="0 0 101 114" fill="none" xmlns="http://www.w3.org/2000/svg">
<g filter="url(#filter0_d_44_2)">
<path d="M40 49.5V87.5" stroke="url(#paint0_linear_44_2)"/>
<path d="M39.5 18.5V27.5" stroke="url(#paint1_linear_44_2)"/>
<path d="M63.5 11.5V27.5M63.5 50V85.5" stroke="url(#paint2_linear_44_2)"/>
<path d="M7 92.5L96.5 85V83L52.75 86.75L9 90.5L7 92.5Z" stroke="url(#paint3_linear_44_2)"/>
<path d="M20.5002 84.5C15.5002 78 25.5002 69 29.0001 70.5C32.0001 36.5 32.0716 35 33.0002 28.5C34.3574 19 52.5 39.707 52.5 38.9999C52.5 38 87.9999 2.99997 87.9999 6.49995L86.4999 73.9999C85 80.5 72 90.5 68.1835 78.4999C65.1621 69 74.8501 64.6666 80.1835 66.4999C80.1835 53.1666 81 34.8 81 32C81 29.2 56 60.4999 52.5 59.9999C49.3075 59.5439 38.5002 44.5 37.5 50.4999L38.0001 66.25L38.5002 82C38.5002 87 25.5001 91 20.5002 84.5Z" fill="url(#paint4_linear_44_2)" fill-opacity="0.91" stroke="#400081" stroke-opacity="0.8"/>
<path d="M8.5 90.5L41.5 87.6552L42.5 87.569M95.5 83L61 85.9741M94 3L65.5 11L61 12.2632M8.5 27L41.5 17.7368L42.5 17.4561M61 12.2632V30M61 12.2632L42.5 17.4561M61 53V85.9741M61 85.9741L42.5 87.569M42.5 17.4561V30M42.5 87.569V51" stroke="url(#paint5_linear_44_2)"/>
<path d="M6 26L96.5 1V2.5L9.5 27L6 26Z" stroke="url(#paint6_linear_44_2)"/>
<path d="M16.252 103.5C15.916 103.5 15.748 103.332 15.748 102.996V95.868C15.748 95.532 15.916 95.364 16.252 95.364C16.472 95.364 16.656 95.472 16.804 95.688L19.636 99.948L19.42 99.984L22.276 95.688C22.412 95.472 22.616 95.364 22.888 95.364C23.16 95.364 23.296 95.532 23.296 95.868V102.996C23.296 103.332 23.128 103.5 22.792 103.5C22.456 103.5 22.288 103.332 22.288 102.996V96.876L22.6 96.984L20.08 100.692C19.932 100.908 19.728 101.016 19.468 101.016C19.288 101.016 19.124 100.908 18.976 100.692L16.456 96.984L16.756 97.068V102.996C16.756 103.332 16.588 103.5 16.252 103.5ZM26.511 100.872V101.16C26.511 101.676 26.605 102.028 26.793 102.216C26.981 102.4 27.335 102.492 27.855 102.492H28.839C29.247 102.492 29.549 102.454 29.745 102.378C29.941 102.302 30.071 102.168 30.135 101.976C30.179 101.824 30.239 101.708 30.315 101.628C30.395 101.548 30.515 101.508 30.675 101.508C30.843 101.508 30.971 101.552 31.059 101.64C31.147 101.728 31.175 101.856 31.143 102.024C31.055 102.52 30.819 102.89 30.435 103.134C30.051 103.378 29.519 103.5 28.839 103.5H27.855C27.059 103.5 26.467 103.308 26.079 102.924C25.695 102.54 25.503 101.952 25.503 101.16V99.768C25.503 98.956 25.695 98.36 26.079 97.98C26.467 97.596 27.059 97.408 27.855 97.416H28.839C29.639 97.416 30.231 97.608 30.615 97.992C30.999 98.372 31.191 98.964 31.191 99.768V100.368C31.191 100.704 31.023 100.872 30.687 100.872H26.511ZM27.855 98.424C27.335 98.416 26.981 98.506 26.793 98.694C26.605 98.882 26.511 99.24 26.511 99.768V99.864H30.183V99.768C30.183 99.244 30.089 98.89 29.901 98.706C29.717 98.518 29.363 98.424 28.839 98.424H27.855ZM35.2084 103.5C34.5964 103.5 34.1404 103.35 33.8404 103.05C33.5444 102.746 33.3964 102.288 33.3964 101.676V95.556C33.3964 95.22 33.5644 95.052 33.9004 95.052C34.2364 95.052 34.4044 95.22 34.4044 95.556V101.676C34.4044 102 34.4564 102.218 34.5604 102.33C34.6684 102.438 34.8844 102.492 35.2084 102.492C35.5524 102.492 35.7244 102.66 35.7244 102.996C35.7364 103.332 35.5644 103.5 35.2084 103.5ZM39.3393 103.5C38.5433 103.5 37.9513 103.308 37.5633 102.924C37.1793 102.54 36.9873 101.952 36.9873 101.16V99.768C36.9873 98.964 37.1793 98.372 37.5633 97.992C37.9513 97.608 38.5433 97.416 39.3393 97.416H40.3233C41.1233 97.416 41.7153 97.608 42.0993 97.992C42.4833 98.376 42.6753 98.968 42.6753 99.768V101.148C42.6753 101.944 42.4833 102.536 42.0993 102.924C41.7153 103.308 41.1233 103.5 40.3233 103.5H39.3393ZM37.9953 101.16C37.9953 101.676 38.0893 102.028 38.2773 102.216C38.4653 102.4 38.8193 102.492 39.3393 102.492H40.3233C40.8473 102.492 41.2013 102.398 41.3853 102.21C41.5733 102.022 41.6673 101.668 41.6673 101.148V99.768C41.6673 99.244 41.5733 98.89 41.3853 98.706C41.2013 98.518 40.8473 98.424 40.3233 98.424H39.3393C38.9913 98.424 38.7193 98.464 38.5233 98.544C38.3313 98.62 38.1953 98.756 38.1153 98.952C38.0353 99.144 37.9953 99.416 37.9953 99.768V101.16ZM46.9448 103.5C46.1488 103.5 45.5568 103.308 45.1688 102.924C44.7848 102.536 44.5928 101.944 44.5928 101.148V99.768C44.5928 98.968 44.7848 98.376 45.1688 97.992C45.5568 97.608 46.1488 97.416 46.9448 97.416H49.2728V95.556C49.2728 95.22 49.4408 95.052 49.7768 95.052C50.1128 95.052 50.2808 95.22 50.2808 95.556V102.996C50.2808 103.332 50.1128 103.5 49.7768 103.5C49.4408 103.5 49.2728 103.332 49.2728 102.996V102.912C49.0848 103.104 48.8388 103.25 48.5348 103.35C48.2308 103.45 47.8528 103.5 47.4008 103.5H46.9448ZM46.9448 102.492H47.4008C47.9288 102.492 48.3728 102.424 48.7328 102.288C49.0928 102.152 49.2728 101.944 49.2728 101.664V98.424H46.9448C46.4248 98.424 46.0708 98.52 45.8828 98.712C45.6948 98.9 45.6008 99.252 45.6008 99.768V101.148C45.6008 101.668 45.6948 102.022 45.8828 102.21C46.0748 102.398 46.4288 102.492 46.9448 102.492ZM54.2701 105.9C53.6901 105.9 53.2561 105.754 52.9681 105.462C52.6841 105.174 52.5421 104.74 52.5421 104.16C52.5421 103.824 52.7101 103.656 53.0461 103.656C53.3821 103.656 53.5501 103.824 53.5501 104.16C53.5501 104.46 53.5941 104.656 53.6821 104.748C53.7741 104.844 53.9701 104.892 54.2701 104.892H56.5981C56.8941 104.892 57.0881 104.844 57.1801 104.748C57.2721 104.656 57.3181 104.46 57.3181 104.16V102.636C57.0781 102.996 56.7981 103.23 56.4781 103.338C56.1621 103.446 55.8181 103.5 55.4461 103.5H54.8581C54.0661 103.5 53.4821 103.312 53.1061 102.936C52.7301 102.56 52.5421 101.98 52.5421 101.196V97.92C52.5421 97.584 52.7101 97.416 53.0461 97.416C53.3821 97.416 53.5501 97.584 53.5501 97.92V101.196C53.5501 101.7 53.6401 102.042 53.8201 102.222C54.0041 102.402 54.3501 102.492 54.8581 102.492H55.4461C56.1021 102.492 56.5781 102.386 56.8741 102.174C57.1701 101.958 57.3181 101.632 57.3181 101.196V97.92C57.3181 97.584 57.4861 97.416 57.8221 97.416C58.1581 97.416 58.3261 97.584 58.3261 97.92V104.16C58.3261 104.74 58.1821 105.174 57.8941 105.462C57.6061 105.754 57.1741 105.9 56.5981 105.9H54.2701ZM61.5383 100.872V101.16C61.5383 101.676 61.6323 102.028 61.8203 102.216C62.0083 102.4 62.3623 102.492 62.8823 102.492H63.8663C64.2743 102.492 64.5763 102.454 64.7723 102.378C64.9683 102.302 65.0983 102.168 65.1623 101.976C65.2063 101.824 65.2663 101.708 65.3423 101.628C65.4223 101.548 65.5423 101.508 65.7023 101.508C65.8703 101.508 65.9983 101.552 66.0863 101.64C66.1743 101.728 66.2023 101.856 66.1703 102.024C66.0823 102.52 65.8463 102.89 65.4623 103.134C65.0783 103.378 64.5463 103.5 63.8663 103.5H62.8823C62.0863 103.5 61.4943 103.308 61.1063 102.924C60.7223 102.54 60.5303 101.952 60.5303 101.16V99.768C60.5303 98.956 60.7223 98.36 61.1063 97.98C61.4943 97.596 62.0863 97.408 62.8823 97.416H63.8663C64.6663 97.416 65.2583 97.608 65.6423 97.992C66.0263 98.372 66.2183 98.964 66.2183 99.768V100.368C66.2183 100.704 66.0503 100.872 65.7143 100.872H61.5383ZM62.8823 98.424C62.3623 98.416 62.0083 98.506 61.8203 98.694C61.6323 98.882 61.5383 99.24 61.5383 99.768V99.864H65.2103V99.768C65.2103 99.244 65.1163 98.89 64.9283 98.706C64.7443 98.518 64.3903 98.424 63.8663 98.424H62.8823ZM68.9278 103.5C68.7958 103.5 68.6778 103.45 68.5738 103.35C68.4738 103.246 68.4238 103.128 68.4238 102.996V95.868C68.4238 95.736 68.4738 95.62 68.5738 95.52C68.6778 95.416 68.7958 95.364 68.9278 95.364C69.0598 95.364 69.1758 95.416 69.2758 95.52C69.3798 95.62 69.4318 95.736 69.4318 95.868V98.88H74.3278V95.868C74.3278 95.736 74.3778 95.62 74.4778 95.52C74.5778 95.416 74.6958 95.364 74.8318 95.364C74.9638 95.364 75.0798 95.416 75.1798 95.52C75.2838 95.62 75.3358 95.736 75.3358 95.868V102.996C75.3358 103.128 75.2838 103.246 75.1798 103.35C75.0798 103.45 74.9638 103.5 74.8318 103.5C74.6958 103.5 74.5778 103.45 74.4778 103.35C74.3778 103.246 74.3278 103.128 74.3278 102.996V99.888H69.4318V102.996C69.4318 103.128 69.3798 103.246 69.2758 103.35C69.1758 103.45 69.0598 103.5 68.9278 103.5ZM82.7779 97.416C83.1139 97.416 83.2819 97.584 83.2819 97.92V102.996C83.2819 103.332 83.1139 103.5 82.7779 103.5C82.4419 103.5 82.2739 103.332 82.2739 102.996V102.798C81.8499 103.266 81.2259 103.5 80.4019 103.5H80.0659C79.2699 103.5 78.6779 103.308 78.2899 102.924C77.9059 102.536 77.7139 101.944 77.7139 101.148V97.92C77.7139 97.584 77.8819 97.416 78.2179 97.416C78.5539 97.416 78.7219 97.584 78.7219 97.92V101.148C78.7219 101.668 78.8159 102.022 79.0039 102.21C79.1959 102.398 79.5499 102.492 80.0659 102.492H80.4019C80.8819 102.492 81.2999 102.436 81.6559 102.324C82.0159 102.212 82.2219 102.04 82.2739 101.808V97.92C82.2739 97.584 82.4419 97.416 82.7779 97.416ZM86.2833 103.5C85.9473 103.5 85.7793 103.332 85.7793 102.996V95.556C85.7793 95.22 85.9473 95.052 86.2833 95.052C86.6193 95.052 86.7873 95.22 86.7873 95.556V98.058C86.9953 97.846 87.2553 97.686 87.5673 97.578C87.8793 97.47 88.2433 97.416 88.6593 97.416H89.1153C89.9153 97.416 90.5073 97.608 90.8913 97.992C91.2753 98.376 91.4673 98.968 91.4673 99.768V101.148C91.4673 101.944 91.2753 102.536 90.8913 102.924C90.5073 103.308 89.9153 103.5 89.1153 103.5H88.6593C88.2433 103.5 87.8793 103.446 87.5673 103.338C87.2553 103.23 86.9953 103.072 86.7873 102.864V102.996C86.7873 103.332 86.6193 103.5 86.2833 103.5ZM88.6593 102.492H89.1153C89.6393 102.492 89.9933 102.398 90.1773 102.21C90.3653 102.018 90.4593 101.664 90.4593 101.148V99.768C90.4593 99.244 90.3633 98.89 90.1713 98.706C89.9833 98.518 89.6313 98.424 89.1153 98.424H88.6593C88.1313 98.424 87.6873 98.492 87.3273 98.628C86.9673 98.76 86.7873 98.968 86.7873 99.252V101.664C86.7873 101.944 86.9673 102.152 87.3273 102.288C87.6873 102.424 88.1313 102.492 88.6593 102.492Z" fill="black"/>
</g>
<defs>
<filter id="filter0_d_44_2" x="0.151581" y="0.34314" width="100.848" height="113.557" filterUnits="userSpaceOnUse" color-interpolation-filters="sRGB">
<feFlood flood-opacity="0" result="BackgroundImageFix"/>
<feColorMatrix in="SourceAlpha" type="matrix" values="0 0 0 0 0 0 0 0 0 0 0 0 0 0 0 0 0 0 127 0" result="hardAlpha"/>
<feOffset dy="4"/>
<feGaussianBlur stdDeviation="2"/>
<feComposite in2="hardAlpha" operator="out"/>
<feColorMatrix type="matrix" values="0 0 0 0 0 0 0 0 0 0 0 0 0 0 0 0 0 0 0.25 0"/>
<feBlend mode="normal" in2="BackgroundImageFix" result="effect1_dropShadow_44_2"/>
<feBlend mode="normal" in="SourceGraphic" in2="effect1_dropShadow_44_2" result="shape"/>
</filter>
<linearGradient id="paint0_linear_44_2" x1="40.5" y1="49.5" x2="40.5" y2="87.5" gradientUnits="userSpaceOnUse">
<stop stop-color="#830D77"/>
<stop offset="1" stop-color="#E5B60B"/>
</linearGradient>
<linearGradient id="paint1_linear_44_2" x1="40" y1="18.5" x2="40" y2="27.5" gradientUnits="userSpaceOnUse">
<stop stop-color="#830D77"/>
<stop offset="1" stop-color="#E5B60B"/>
</linearGradient>
<linearGradient id="paint2_linear_44_2" x1="64" y1="11.5" x2="64" y2="85.5" gradientUnits="userSpaceOnUse">
<stop stop-color="#830D77"/>
<stop offset="1" stop-color="#E5B60B"/>
</linearGradient>
<linearGradient id="paint3_linear_44_2" x1="51.75" y1="83" x2="51.75" y2="92.5" gradientUnits="userSpaceOnUse">
<stop stop-color="#830D77"/>
<stop offset="1" stop-color="#E5B60B"/>
</linearGradient>
<linearGradient id="paint4_linear_44_2" x1="53.5634" y1="6.25403" x2="53.5634" y2="87.884" gradientUnits="userSpaceOnUse">
<stop stop-color="#390247"/>
<stop offset="1" stop-color="#CD05AD"/>
</linearGradient>
<linearGradient id="paint5_linear_44_2" x1="52" y1="3" x2="52" y2="90.5" gradientUnits="userSpaceOnUse">
<stop offset="0.49" stop-color="#830D77"/>
<stop offset="1" stop-color="#E6B60B"/>
</linearGradient>
<linearGradient id="paint6_linear_44_2" x1="51.25" y1="1" x2="51.25" y2="27" gradientUnits="userSpaceOnUse">
<stop stop-color="#830D77"/>
<stop offset="1" stop-color="#E5B60B"/>
</linearGradient>
</defs>
</svg>
